<svg xmlns="http://www.w3.org/2000/svg" viewBox="0 0 300 420" role="img" aria-labelledby="title desc">
  <title id="title">DrawTwo card placeholder</title>
  <desc id="desc">A neutral card art placeholder used when a card image is unavailable.</desc>
  <rect width="300" height="420" rx="18" fill="#d1d5db"/>
  <rect x="18" y="18" width="264" height="384" rx="14" fill="#f8fafc" stroke="#111827" stroke-width="5"/>
  <g fill="none" stroke="#111827" stroke-linecap="round" stroke-linejoin="round" stroke-width="10" opacity=".82">
    <path d="M96 238c24-54 72-82 108-73 32 8 48 38 34 70-14 31-55 52-98 47-29-3-48-18-44-44z"/>
    <path d="M87 275c36 28 91 35 137 13"/>
    <path d="M112 175c-13-25-11-49 6-66 22-23 62-20 83 5 18 21 16 51-3 73"/>
    <path d="M139 111c-5 29 8 54 32 71"/>
    <path d="M202 116c-26 20-44 44-51 75"/>
    <path d="M108 310c19 16 40 24 64 24 31 0 55-11 74-32"/>
  </g>
  <text x="150" y="375" text-anchor="middle" fill="#111827" font-family="Inter, Arial, sans-serif" font-size="20" font-weight="700" letter-spacing="2">DRAWTWO</text>
</svg>
